<?xml version="1.0" ?><svg baseProfile="tiny" height="64px" version="1.2" viewBox="0 0 64 64" width="64px" xml:space="preserve" xmlns="http://www.w3.org/2000/svg" xmlns:xlink="http://www.w3.org/1999/xlink"><g id="box"><rect fill="none" height="64" width="64"/></g><g id="icon"><g><path d="M25.9462,35.5474c-1.4961,0-2.7079,1.2123-2.7079,2.7087c0,1.4944,1.2118,2.7066,2.7079,2.7066    c1.4933,0,2.7072-1.2122,2.7072-2.7066C28.6533,36.7596,27.4395,35.5474,25.9462,35.5474z M38.0917,35.5474    c-1.4957,0-2.7085,1.2123-2.7085,2.7087c0,1.4944,1.2128,2.7066,2.7085,2.7066c1.4934,0,2.7054-1.2122,2.7054-2.7066    C40.7971,36.7596,39.5851,35.5474,38.0917,35.5474z M51.0021,29.6097c-0.3757-0.4388-0.9225-0.9213-1.6848-1.2803    c-0.1141-0.5169-0.3013-1.0328-0.5602-1.5394c1.45-8.1476-0.2662-14.3132-4.4963-16.1099    c-2.0696-0.8789-6.4739-2.6622-9.8103-3.4155C34.4146,6.1982,33.3325,5.3422,32,5.3422c-1.322,0-2.3969,0.8429-2.4489,1.8975    c-2.8488,0.626-6.6921,2.035-8.9614,3.089c-2.0203,0.9383-3.7787,3.2195-4.8243,6.2585c-1.1499,3.342-1.283,7.2057-0.6462,10.4584    c-0.1954,0.4237-0.3407,0.8529-0.4357,1.2827c-0.7629,0.359-1.3093,0.8422-1.6852,1.2811    c-1.3378,1.5627-1.7938,3.9974-1.319,7.0408c0.5093,3.2634,2.2289,4.9944,3.6587,5.7541    c2.8578,9.957,11.4789,15.2411,16.6729,15.2411c2.8229,0,6.4352-1.5197,9.4272-3.9659c2.4834-2.0304,5.6919-5.6072,7.2386-11.2831    c1.4269-0.7639,3.1365-2.4942,3.6438-5.746C52.7957,33.6071,52.3397,31.1725,51.0021,29.6097z M32.2134,10.7588    c1.4056,0,2.6969,0.6459,3.5428,1.7719l-1.8989,1.4265c-0.3931-0.5233-0.9923-0.8234-1.6439-0.8234    c-1.1339,0-2.0565,0.9226-2.0565,2.0566s0.9226,2.0565,2.0565,2.0565c0.6517,0,1.251-0.3002,1.6442-0.8235l1.8987,1.4268    c-2.5551,3.4009-7.9744,1.5675-7.9744-2.6597C27.7819,12.7468,29.7698,10.7588,32.2134,10.7588z M19.2362,26.2094    c6.5978-5.7038,20.0695-5.7234,26.364,0.7886c1.9053,2.2341,1.3702,5.0436-1.8009,3.9183    c-2.8289-1.0042-6.8112-3.9821-11.7992-3.9821c-5.9154,0-10.6117,4.2817-13.197,4.2817    C17.0923,31.2161,16.3702,28.6867,19.2362,26.2094z M48.769,36.096c-0.4016,2.5733-1.7554,3.14-2.0188,3.2267l-1.0703,0.1607    c-0.3245,1.4025-0.6056,2.8145-1.4431,4.7094c-3.0244,6.8426-9.2206,9.858-12.226,9.858c-4.1678,0-12.1935-5.4266-13.5984-14.5496    l-1.1624-0.1785c-0.2621-0.0861-1.6174-0.6519-2.0193-3.2268c-0.2521-1.6153-0.1616-2.941,0.2408-3.7494    c0.4575,0.6002,1.0524,1.0547,1.7664,1.3328v1.3057c0,0.8181,0.6632,1.4813,1.4813,1.4813s1.4813-0.6633,1.4813-1.4813v-1.1986    c3.2925-0.7939,7.1384-4.1022,11.7994-4.1022c4.6606,0,8.5074,3.3079,11.7992,4.102v1.1989c0,0.8181,0.6632,1.4813,1.4813,1.4813    s1.4813-0.6632,1.4813-1.4813v-1.3057c0.7126-0.2773,1.3082-0.7314,1.7665-1.3326C48.9309,33.1552,49.0212,34.4807,48.769,36.096z    " fill="#565D64"/></g></g></svg>