<?xml version="1.0" ?><svg enable-background="new 0 0 64 64" id="Stroke" version="1.1" viewBox="0 0 64 64" xml:space="preserve" xmlns="http://www.w3.org/2000/svg" xmlns:xlink="http://www.w3.org/1999/xlink"><g><path d="M55.244,58.075c-1.253-3.56-5.375-6.299-9.031-8.007c-1.026-0.956-2.312-1.645-3.678-2.183   c-0.803-0.316-1.209-1.222-0.895-2.026c0.54-1.38,1.319-2.625,2.363-3.753c1.21-1.307,2.094-3.243,2.556-4.394   c0.216-0.538,0.684-0.946,1.256-1.037c2.248-0.359,3.85-1.935,4.386-4.265c0.665-2.89-0.09-6.022-2.858-7.224   c-0.436-0.189-0.716-0.621-0.672-1.095l0.011-0.118c0.04-0.441-0.106-0.857-0.362-1.194c0.376-0.553,0.171-1.564,0.142-2.199   c-0.032-0.708-0.085-1.416-0.165-2.12c-0.137-1.21-0.35-2.413-0.665-3.59c-0.557-2.082-1.44-4.093-2.762-5.805   c-2.686-3.477-6.857-5.083-11.142-5.385c-0.774-1.31-2.79-1.304-3.557,0.011c-6.41,0.552-11.664,4.317-13.655,10.549   c-0.407,1.273-0.681,2.587-0.856,3.911c-0.092,0.7-0.157,1.404-0.198,2.109c-0.041,0.701-0.303,1.971,0.162,2.569   c-0.231,0.328-0.36,0.725-0.322,1.143l0.012,0.127c0.043,0.472-0.234,0.902-0.667,1.093c-2.74,1.209-3.489,4.354-2.802,7.206   c0.545,2.265,2.15,3.826,4.345,4.235c0.541,0.101,0.98,0.489,1.2,0.994c0.64,1.468,1.964,3.699,2.852,4.716   c0.916,1.048,1.654,2.196,2.146,3.468c0.309,0.799-0.107,1.702-0.907,2.009c-1.513,0.581-2.936,1.339-4.031,2.43   c-3.025,1.46-6.239,3.451-7.99,6.416c-1.228,2.079-1.856,5.051-1.524,7.468l1.98-0.271c-0.15-1.653,0.162-3.385,0.704-4.942   c0.827-2.378,2.903-4.055,4.968-5.357c-0.932,3.876,0.797,8.04,4.783,9.2c4.052,1.179,7.884-0.954,9.737-4.485   c0.198-0.378,0.601-0.607,1.027-0.572c0.536,0.045,1.072,0.049,1.609,0.014c0.417-0.027,0.809,0.2,1.004,0.57   c1.875,3.568,5.79,5.693,9.862,4.434c3.96-1.224,5.617-5.462,4.611-9.305c2.08,1.279,4.259,2.951,5.138,5.317   c0.584,1.571,0.953,3.438,0.766,5.125l1.98,0.271C56.118,64.029,56.447,61.495,55.244,58.075   C53.991,54.515,56.447,61.495,55.244,58.075z M25.072,49.48c0-0.649-0.054-1.292-0.156-1.925c-0.116-0.714,0.575-1.278,1.243-1.001   c1.223,0.507,2.518,0.862,3.863,1.04c0.378,0.05,0.655,0.381,0.612,0.76c-0.238,2.074-0.632,4.192-1.192,6.091   c-0.136,0.461-0.643,0.712-1.082,0.516c-1.1-0.491-2.096-1.195-2.926-2.065c-0.269-0.281-0.417-0.655-0.405-1.044   C25.057,51.005,25.072,49.48,25.072,49.48z M30.84,40.927c0.189,0.078,0.395,0.122,0.611,0.122h0.945   c0.216,0,0.422-0.044,0.611-0.122v0.606c0,1.394-2.167,1.403-2.167,0V40.927z M38.965,49.48c0,0,0.024,1.543,0.064,2.406   c0.018,0.401-0.136,0.788-0.416,1.076c-0.881,0.903-1.944,1.62-3.115,2.1c-0.437,0.179-0.928-0.07-1.064-0.523   c-0.574-1.919-0.976-4.068-1.218-6.173c-0.043-0.376,0.236-0.705,0.612-0.748c1.408-0.164,2.763-0.52,4.04-1.048   c0.672-0.277,1.367,0.282,1.251,1C39.019,48.199,38.966,48.837,38.965,49.48z M31.952,14.802c4.976,0,8.42,1.746,10.637,3.513   c0.255,0.203,0.034,0.602-0.274,0.497c-6.765-2.315-13.855-2.329-20.629-0.033c-0.307,0.104-0.526-0.294-0.273-0.497   C23.603,16.527,27.007,14.802,31.952,14.802z M13.625,30.862c-0.205-2.554,1.181-4.166,3.746-4.22   c0.11,0.023,0.192,0.022,0.305,0.01c1.002,0.111,1.931-0.645,1.99-1.714l0.109-1.964c0.046-0.83,0.576-1.554,1.352-1.854   c3.447-1.332,7.128-2.153,10.825-2.153c3.727,0,7.439,0.834,10.911,2.185c0.773,0.301,1.301,1.024,1.347,1.852l0.108,1.933   c0.062,1.119,1.078,1.895,2.132,1.69c2.635,0.03,4.169,1.562,3.965,4.235c-0.141,1.845-0.905,3.615-2.92,3.858   c0.173-0.954-1.054-1.574-1.713-0.855c-0.533,0.581-0.612,1.926-0.893,2.67c-0.633,1.672-1.56,3.23-2.744,4.57   c-2.204,2.496-5.275,4.147-8.581,4.53c-0.312,0.036-0.589-0.21-0.601-0.524c-0.002-0.047-0.003-0.095-0.005-0.142   c-0.01-0.31,0.162-0.592,0.434-0.74c0.96-0.521,1.616-1.53,1.616-2.697v-2.42c0-0.267,0.134-0.518,0.361-0.66   c0.475-0.299,1.051-0.73,1.202-1.186c0.159-0.48-0.181-1.008-0.707-1.008h-7.724c-0.527,0-0.867,0.528-0.707,1.008   c0.14,0.422,0.636,0.811,1.063,1.094c0.218,0.144,0.347,0.389,0.347,0.651v2.522c0,1.167,0.656,2.176,1.616,2.697   c0.272,0.148,0.444,0.43,0.434,0.74c-0.001,0.041-0.003,0.083-0.004,0.124c-0.011,0.316-0.293,0.563-0.607,0.523   c-3.24-0.41-6.111-1.939-8.25-4.254c-1.374-1.592-2.45-3.313-3.105-5.319c-0.26-0.796-0.273-2.517-1.071-2.953   c-0.399-0.218-0.889-0.131-1.197,0.201c-0.39,0.422-0.242,0.888-0.14,1.393C14.757,34.384,13.805,33.128,13.625,30.862   C13.547,29.899,13.805,33.128,13.625,30.862z M20.132,60.548c-2.998-1.411-3.679-5.821-1.73-8.367   c0.144-0.188,0.342-0.33,0.557-0.429c0.464-0.212,0.916-0.406,1.346-0.58c0.72-0.291,1.555-0.001,1.923,0.684   c1.058,1.968,2.689,3.563,4.636,4.596c0.936,0.496,1.163,1.757,0.395,2.487C25.503,60.606,22.354,61.593,20.132,60.548z    M31.304,55.212c0.15-0.487,0.289-0.984,0.416-1.489c0.054-0.216,0.354-0.216,0.408,0c0.128,0.507,0.268,1.006,0.418,1.495   c0.079,0.258-0.109,0.516-0.379,0.514c-0.16-0.001-0.333-0.003-0.494-0.007C31.408,55.72,31.226,55.465,31.304,55.212z    M46.461,56.446c-0.228,2.691-2.356,4.555-5.026,4.626c-1.942,0.051-3.634-0.744-4.844-2.09c-0.693-0.772-0.447-1.973,0.478-2.443   c2.01-1.021,3.698-2.636,4.788-4.644c0.376-0.692,1.21-0.994,1.939-0.696c0.312,0.128,0.635,0.266,0.965,0.413   c0.199,0.089,0.385,0.216,0.527,0.382C46.273,53.145,46.62,54.573,46.461,56.446C46.26,58.816,46.632,54.438,46.461,56.446z"/><path d="M24.228,26.058c-2.576-0.011-2.597,3.989-0.018,4C26.787,30.069,26.807,26.069,24.228,26.058z"/><path d="M39.768,26.118c-2.576-0.011-2.597,3.989-0.018,4C42.327,30.129,42.347,26.129,39.768,26.118z"/><path d="M36.618,24.404h5.837c1.287,0,1.289-2,0-2h-5.837C35.331,22.404,35.329,24.404,36.618,24.404z"/><path d="M22.603,24.404l5.772,0.025c1.447,0.006,2.62,1.189,2.614,2.637l-0.014,3.518c-0.002,0.438-0.357,0.792-0.795,0.792h-0.111   c-1.287,0-1.289,2,0,2h1.895h0.004h1.898c1.287,0,1.289-2,0-2h-0.097c-0.44,0-0.796-0.358-0.795-0.798l0.014-3.504   c0.01-2.55-2.057-4.634-4.605-4.645l-5.771-0.025C21.334,22.404,21.305,24.397,22.603,24.404z"/></g></svg>